<?xml version="1.0" encoding="iso-8859-1"?>
<!-- Uploaded to: SVG Repo, www.svgrepo.com, Generator: SVG Repo Mixer Tools -->
<svg height="800px" width="800px" version="1.1" id="Layer_1" xmlns="http://www.w3.org/2000/svg" xmlns:xlink="http://www.w3.org/1999/xlink" 
	 viewBox="0 0 512 512" xml:space="preserve">
<g>
	<path style="fill:#ABB8B9;" d="M297.661,207.795c0,47.127,38.205,85.332,85.334,85.332c47.127,0,85.331-38.206,85.331-85.332
		c0-19.993-6.873-38.381-18.391-52.925c-15.628-19.743-39.806-32.409-66.941-32.409c-27.135,0-51.314,12.666-66.943,32.409
		C304.537,169.414,297.661,187.802,297.661,207.795z"/>
	<path style="fill:#ED8C18;" d="M382.995,293.127c-47.129,0-85.333-38.206-85.333-85.332c0-19.993,6.875-38.381,18.391-52.925
		H31.999c-11.733,0-21.332,9.601-21.332,21.333v149.334c0,11.733,9.599,21.334,21.332,21.334h32.001h64h255.998h64.001h32
		c11.734,0,21.333-9.601,21.333-21.334V176.203c0-11.732-9.599-21.333-21.333-21.333h-30.065
		c11.518,14.544,18.391,32.932,18.391,52.925C468.326,254.923,430.122,293.127,382.995,293.127z"/>
	<g>
		<path style="fill:#FCD051;" d="M128,368.205V346.87h-64v21.335c0,11.734,9.599,21.333,21.332,21.333h21.335
			C118.402,389.538,128,379.939,128,368.205z"/>
		<path style="fill:#FCD051;" d="M383.999,368.205c0,11.734,9.599,21.333,21.333,21.333h21.335c11.734,0,21.333-9.599,21.333-21.333
			V346.87h-64.001L383.999,368.205L383.999,368.205z"/>
	</g>
</g>
<g>
	<path style="fill:#000003;" d="M360.331,185.206c5.961-5.981,14.222-9.413,22.664-9.413c17.645,0,32,14.356,32,32.001
		c0,17.644-14.355,31.998-32,31.998c-2.796,0-5.583-0.367-8.282-1.089c-5.688-1.524-11.54,1.851-13.066,7.541
		s1.852,11.54,7.542,13.067c4.498,1.205,9.144,1.818,13.805,1.818c29.408,0,53.335-23.925,53.335-53.333
		c0-29.41-23.927-53.336-53.335-53.336c-14.072,0-27.84,5.718-37.776,15.688c-4.158,4.172-4.149,10.927,0.025,15.086
		C349.415,189.39,356.169,189.379,360.331,185.206z"/>
	<path style="fill:#000003;" d="M340.329,218.462c5.891,0,10.667-4.776,10.667-10.667c0-0.229,0-0.46,0.006-0.689
		c0.153-5.89-4.499-10.788-10.388-10.94c-5.874-0.161-10.786,4.498-10.941,10.388c-0.011,0.414-0.013,0.829-0.013,1.242
		C329.662,213.686,334.436,218.462,340.329,218.462z"/>
	<path style="fill:#000003;" d="M480,144.203h-25.154c-17.601-19.864-43.287-32.409-71.852-32.409
		c-28.564,0-54.25,12.545-71.849,32.409H31.999c-17.644,0-31.999,14.355-31.999,32v149.334c0,17.646,14.355,32.001,31.999,32.001
		h21.334v10.668c0,17.645,14.355,32,31.999,32h21.335c17.645,0,32-14.355,32-32v-10.668h234.663v10.668c0,17.645,14.355,32,32,32
		h21.335c17.645,0,32-14.355,32-32v-10.668H480c17.645,0,32-14.355,32-32.001V176.203C512,158.558,497.645,144.203,480,144.203z
		 M382.995,133.129c41.172,0,74.666,33.495,74.666,74.666c0,41.17-33.494,74.665-74.666,74.665
		c-41.17,0-74.664-33.495-74.664-74.665C308.331,166.623,341.825,133.129,382.995,133.129z M117.333,368.205
		c0,5.881-4.784,10.665-10.665,10.665H85.332c-5.88,0-10.664-4.784-10.664-10.665v-10.667h42.665V368.205z M437.332,368.205
		c0,5.881-4.785,10.665-10.665,10.665h-21.335c-5.88,0-10.665-4.784-10.665-10.665v-10.667h42.666L437.332,368.205L437.332,368.205z
		 M490.665,325.536c0,5.882-4.785,10.666-10.665,10.666h-32h-64.001H128h-64H31.999c-5.88,0-10.664-4.784-10.664-10.666V176.202
		c0-5.881,4.784-10.665,10.664-10.665h264.814c-6.282,12.758-9.817,27.102-9.817,42.257c0,52.934,43.066,96,95.999,96
		c52.935,0,96.001-43.066,96.001-96c0-15.155-3.534-29.499-9.815-42.257h10.82c5.88,0,10.665,4.784,10.665,10.665v149.334H490.665z"
		/>
	<path style="fill:#000003;" d="M224.241,197.542h-0.26c-5.892,0-10.667,4.776-10.667,10.667s4.776,10.667,10.667,10.667h0.26
		c5.892,0,10.667-4.776,10.667-10.667C234.909,202.318,230.133,197.542,224.241,197.542z"/>
	<path style="fill:#000003;" d="M53.332,218.875h139.344c5.892,0,10.667-4.776,10.667-10.667s-4.776-10.667-10.667-10.667H53.332
		c-5.893,0-10.667,4.776-10.667,10.667C42.665,214.099,47.44,218.875,53.332,218.875z"/>
	<path style="fill:#000003;" d="M224.241,240.202H53.332c-5.893,0-10.667,4.776-10.667,10.667c0,5.892,4.775,10.667,10.667,10.667
		h170.909c5.892,0,10.667-4.776,10.667-10.667C234.909,244.978,230.133,240.202,224.241,240.202z"/>
	<path style="fill:#000003;" d="M224.241,282.865H53.332c-5.893,0-10.667,4.776-10.667,10.667c0,5.892,4.775,10.668,10.667,10.668
		h170.909c5.892,0,10.667-4.776,10.667-10.668C234.909,287.642,230.133,282.865,224.241,282.865z"/>
</g>
</svg>